<svg width="48" height="49" fill="none" xmlns="http://www.w3.org/2000/svg"><path d="M35 23c-7.168 0-13 5.832-13 13s5.832 13 13 13 13-5.832 13-13-5.832-13-13-13Zm-.25 11.5h.5A3.754 3.754 0 0 1 39 38.25c0 1.626-1.048 3.002-2.5 3.52v.73a1.5 1.5 0 0 1-3 0V42h-1a1.5 1.5 0 0 1 0-3h2.75a.75.75 0 0 0 0-1.5h-.5A3.754 3.754 0 0 1 31 33.75c0-1.626 1.048-3.002 2.5-3.52v-.73a1.5 1.5 0 0 1 3 0v.5h1a1.5 1.5 0 0 1 0 3h-2.75a.75.75 0 0 0 0 1.5Z" fill="#F7A804"/><path d="M34 12.916V5a2 2 0 1 0-4 0v4.004L22.398 1.57a1.996 1.996 0 0 0-2.796 0L.878 19.874A3.046 3.046 0 0 0 0 22c0 1.654 1.346 3 3 3h3v11c0 2.758 2.244 5 5 5h5a2 2 0 1 0 0-4h-5c-.552 0-1-.45-1-1V23a2 2 0 0 0-2-2H5.446L21 5.796l13.102 12.812a2 2 0 1 0 2.796-2.86L34 12.916Z" fill="#3B3C45"/></svg>