<svg width="116" height="19" fill="none" xmlns="http://www.w3.org/2000/svg"><path d="M20.27 7.158a.59.59 0 0 0-.48-.394l-6.292-.89L10.683.322A.597.597 0 0 0 10.15 0a.596.596 0 0 0-.534.323l-2.814 5.55-6.293.89a.59.59 0 0 0-.48.395c-.07.21-.012.44.15.593l4.554 4.32-1.075 6.102a.572.572 0 0 0 .237.566.606.606 0 0 0 .626.044l5.629-2.88 5.628 2.88c.2.103.443.086.627-.044a.572.572 0 0 0 .236-.566l-1.075-6.101L20.12 7.75a.568.568 0 0 0 .15-.593ZM44.196 7.158a.59.59 0 0 0-.48-.394l-6.294-.89L34.608.322A.596.596 0 0 0 34.075 0a.596.596 0 0 0-.534.323l-2.814 5.55-6.293.89a.59.59 0 0 0-.48.395c-.07.21-.012.44.15.593l4.554 4.32-1.075 6.102a.572.572 0 0 0 .237.566.606.606 0 0 0 .626.044l5.629-2.88 5.628 2.88c.2.103.444.086.627-.044a.572.572 0 0 0 .236-.566l-1.075-6.101 4.554-4.321a.568.568 0 0 0 .15-.593ZM68.12 7.158a.59.59 0 0 0-.48-.394l-6.293-.89L58.533.322A.596.596 0 0 0 58 0a.596.596 0 0 0-.533.323l-2.815 5.55-6.293.89a.59.59 0 0 0-.48.395c-.07.21-.012.44.15.593l4.554 4.32-1.075 6.102a.572.572 0 0 0 .237.566.606.606 0 0 0 .626.044L58 15.903l5.628 2.88c.2.103.443.086.627-.044a.572.572 0 0 0 .236-.566l-1.075-6.101L67.97 7.75a.568.568 0 0 0 .15-.593ZM92.046 7.158a.59.59 0 0 0-.48-.394l-6.294-.89L82.458.322A.596.596 0 0 0 81.925 0a.596.596 0 0 0-.534.323l-2.814 5.55-6.293.89a.59.59 0 0 0-.48.395c-.07.21-.012.44.15.593l4.554 4.32-1.075 6.102a.572.572 0 0 0 .237.566.606.606 0 0 0 .626.044l5.629-2.88 5.628 2.88c.2.103.444.086.627-.044a.572.572 0 0 0 .236-.566l-1.075-6.101 4.554-4.321a.568.568 0 0 0 .15-.593ZM115.971 7.158a.59.59 0 0 0-.48-.394l-6.294-.89-2.814-5.551A.596.596 0 0 0 105.85 0a.598.598 0 0 0-.534.323l-2.814 5.55-6.293.89a.59.59 0 0 0-.48.395c-.07.21-.012.44.15.593l4.554 4.32-1.075 6.102a.572.572 0 0 0 .237.566.606.606 0 0 0 .626.044l5.629-2.88 5.628 2.88a.61.61 0 0 0 .627-.044.572.572 0 0 0 .236-.566l-1.075-6.101 4.554-4.321a.569.569 0 0 0 .151-.593Z" fill="#FFCA56"/></svg>